# xmcd
#
# Track frame offsets:
#	150
#	10742
#	23277
#	41463
#	52887
#	65900
#	79198
#	90675
#	103426
#	115605
#	130231
#	142938
#	154665
#	165507
#	177080
#	189346
#
# Disc length: 2697 seconds
#
# Revision: 1
# Processed by: cddbd v1.5.1PL2 Copyright (c) Steve Scherf et al.
# Submitted via: audiograbber 1.83.01
#
DISCID=c00a8710
DTITLE=Various Artist - CB6060
DYEAR=1900
DGENRE=Karaoke
TTITLE0=Flatt and Scruggs - Salty Dog
TTITLE1=Bill Monroe - Blue Moon Of Kentucky
TTITLE2=Bill Monroe - In The Pines
TTITLE3=Bill Monroe - Dark Hollow
TTITLE4=Jimmy Martin - Honey You Don't Know My Mind
TTITLE5=Ralph Stanley - Little Maggie
TTITLE6=Country Gentlemen - Nine Pound Hammer
TTITLE7=Flatt and Scruggs - Roll In My Sweet Baby's Arms
TTITLE8=Country Gentlemen - Fox On The Run
TTITLE9=Grandpa Jones - Mountain Dew
TTITLE10=Mac Wiseman - Footprints In The Snow
TTITLE11=Flatt and Scruggs - I'll Go Steppin' Too
TTITLE12=Stanley Brothers - Pig In The Pen
TTITLE13=Jim and Jesse - Old Slew Foot
TTITLE14=Bill Monroe - Little Georgia Rose
TTITLE15=Jimmie Martin - Long Journey Home
EXTD=
EXTT0=
EXTT1=
EXTT2=
EXTT3=
EXTT4=
EXTT5=
EXTT6=
EXTT7=
EXTT8=
EXTT9=
EXTT10=
EXTT11=
EXTT12=
EXTT13=
EXTT14=
EXTT15=
PLAYORDER=
